<svg width="14" height="14" viewBox="0 0 14 14" fill="none" xmlns="http://www.w3.org/2000/svg">
<path d="M7.98438 4.8125H6.01562C5.77363 4.8125 5.57812 5.00801 5.57812 5.25V12.6875C5.57812 12.9295 5.77363 13.125 6.01562 13.125H7.98438C8.22637 13.125 8.42188 12.9295 8.42188 12.6875V5.25C8.42188 5.00801 8.22637 4.8125 7.98438 4.8125ZM12.1953 0.875H10.2266C9.98457 0.875 9.78906 1.07051 9.78906 1.3125V12.6875C9.78906 12.9295 9.98457 13.125 10.2266 13.125H12.1953C12.4373 13.125 12.6328 12.9295 12.6328 12.6875V1.3125C12.6328 1.07051 12.4373 0.875 12.1953 0.875ZM3.77344 8.75H1.80469C1.5627 8.75 1.36719 8.94551 1.36719 9.1875V12.6875C1.36719 12.9295 1.5627 13.125 1.80469 13.125H3.77344C4.01543 13.125 4.21094 12.9295 4.21094 12.6875V9.1875C4.21094 8.94551 4.01543 8.75 3.77344 8.75Z" fill="black"/>
</svg>
