<svg width="17" height="21" viewBox="0 0 17 21" fill="none" xmlns="http://www.w3.org/2000/svg">
<path d="M14.45 6.5625V9.1875H15.3V11.8125H14.45V14.4375H1.7V6.5625H14.45ZM14.875 3.9375H1.275C0.570828 3.9375 0 4.81893 0 5.90625V15.0938C0 16.1811 0.570828 17.0625 1.275 17.0625H14.875C15.5792 17.0625 16.15 16.1811 16.15 15.0938V14.4375H16.3625C16.7146 14.4375 17 13.9968 17 13.4531V7.54688C17 7.00321 16.7146 6.5625 16.3625 6.5625H16.15V5.90625C16.15 4.81893 15.5792 3.9375 14.875 3.9375ZM11.05 7.875H2.55V13.125H11.05V7.875Z" fill="black"/>
</svg>
