<svg width="21" height="22" viewBox="0 0 21 22" fill="none" xmlns="http://www.w3.org/2000/svg">
<path d="M15.4621 13.1148C14.161 11.7508 12.3987 11 10.5 11C8.60122 11 6.83897 11.7508 5.53784 13.1148L6.77509 14.4109C7.74634 13.3934 9.06847 12.8324 10.5 12.8324C11.9315 12.8333 13.2536 13.3934 14.2248 14.4109L15.4621 13.1148Z" fill="black"/>
<path d="M17.8824 10.351C13.8819 6.15905 7.11903 6.15905 3.11853 10.351L4.35578 11.6471C7.6869 8.15739 13.314 8.15739 16.6452 11.6471L17.8824 10.351Z" fill="black"/>
<path d="M10.5 18.3333C11.4665 18.3333 12.25 17.5125 12.25 16.5C12.25 15.4874 11.4665 14.6666 10.5 14.6666C9.5335 14.6666 8.75 15.4874 8.75 16.5C8.75 17.5125 9.5335 18.3333 10.5 18.3333Z" fill="black"/>
</svg>
