<svg width="15" height="25" viewBox="0 0 15 25" fill="none" xmlns="http://www.w3.org/2000/svg">
<g style="mix-blend-mode:screen" opacity="0.35">
<g style="mix-blend-mode:screen" opacity="0.35">
<path d="M14.7318 25C14.7318 25 14.3278 22.9387 14.0395 19.8467C13.9542 19.0818 13.8785 18.2363 13.8237 17.3538C13.769 16.4713 13.7094 15.5098 13.5935 14.6306C13.5355 14.1829 13.4918 13.7223 13.4323 13.2472C13.3018 12.8011 13.2004 12.3534 13.1005 11.8929L12.9396 11.2004L12.6804 10.5562C12.5304 10.1085 12.3525 9.67061 12.1473 9.24535L11.4854 8.00534C11.2551 7.60274 10.9522 7.24201 10.6929 6.86678C10.414 6.50056 10.1158 6.14952 9.79933 5.81518C9.50607 5.46544 9.18287 5.14212 8.83309 4.84894C8.17749 4.26744 7.4892 3.72384 6.77177 3.22082C6.05192 2.77312 5.37393 2.34154 4.71205 1.9953C4.05017 1.64906 3.41406 1.33342 2.85203 1.10152C2.27712 0.842244 1.77129 0.640941 1.35419 0.483122C0.503897 0.16104 0 0 0 0H0.0578138C4.0761 0.398759 7.80259 2.27702 10.5132 5.26985C13.2239 8.26268 14.7252 12.1563 14.7256 16.1943L14.7318 25Z" fill="#7C2424"/>
</g>
</g>
</svg>
