<svg width="27" height="12" viewBox="0 0 27 12" fill="none" xmlns="http://www.w3.org/2000/svg">
<path opacity="0.44" fill-rule="evenodd" clip-rule="evenodd" d="M25.4717 3.56604L25.9403 3.87845C26.6023 4.3198 27 5.06283 27 5.85849C27 6.65416 26.6023 7.39718 25.9403 7.83853L25.4717 8.15094V3.56604ZM2.03774 0H22.4151C23.5405 0 24.4528 0.912325 24.4528 2.03774V9.67925C24.4528 10.8047 23.5405 11.717 22.4151 11.717H2.03774C0.912325 11.717 0 10.8047 0 9.67925V2.03774C0 0.912325 0.912325 0 2.03774 0ZM2.03774 1.01887C1.47503 1.01887 1.01887 1.47503 1.01887 2.03774V9.67925C1.01887 10.2419 1.47503 10.6981 2.03774 10.6981H22.4151C22.9778 10.6981 23.434 10.2419 23.434 9.67925V2.03774C23.434 1.47503 22.9778 1.01887 22.4151 1.01887H2.03774Z" fill="black"/>
</svg>
