<svg width="42" height="42" viewBox="0 0 42 42" fill="none" xmlns="http://www.w3.org/2000/svg">
<path d="M12.25 38.5H7C6.07174 38.5 5.1815 38.1313 4.52513 37.4749C3.86875 36.8185 3.5 35.9283 3.5 35V22.75C3.5 21.8217 3.86875 20.9315 4.52513 20.2751C5.1815 19.6188 6.07174 19.25 7 19.25H12.25M24.5 15.75V8.75C24.5 7.35761 23.9469 6.02226 22.9623 5.03769C21.9777 4.05312 20.6424 3.5 19.25 3.5L12.25 19.25V38.5H31.99C32.8341 38.5095 33.6532 38.2137 34.2963 37.667C34.9395 37.1203 35.3634 36.3596 35.49 35.525L37.905 19.775C37.9811 19.2734 37.9473 18.7612 37.8058 18.2739C37.6644 17.7867 37.4187 17.336 37.0858 16.9532C36.7528 16.5703 36.3406 16.2644 35.8778 16.0566C35.4149 15.8489 34.9123 15.7443 34.405 15.75H24.5Z" stroke="white" stroke-width="2" stroke-linecap="round" stroke-linejoin="round"/>
</svg>
