<svg width="12" height="13" viewBox="0 0 12 13" fill="none" xmlns="http://www.w3.org/2000/svg">
<path d="M7.02232 4.17857H4.93304C4.67623 4.17857 4.46875 4.38605 4.46875 4.64286V12.5357C4.46875 12.7925 4.67623 13 4.93304 13H7.02232C7.27913 13 7.48661 12.7925 7.48661 12.5357V4.64286C7.48661 4.38605 7.27913 4.17857 7.02232 4.17857ZM11.4911 0H9.40179C9.14498 0 8.9375 0.207478 8.9375 0.464286V12.5357C8.9375 12.7925 9.14498 13 9.40179 13H11.4911C11.7479 13 11.9554 12.7925 11.9554 12.5357V0.464286C11.9554 0.207478 11.7479 0 11.4911 0ZM2.55357 8.35714H0.464286C0.207478 8.35714 0 8.56462 0 8.82143V12.5357C0 12.7925 0.207478 13 0.464286 13H2.55357C2.81038 13 3.01786 12.7925 3.01786 12.5357V8.82143C3.01786 8.56462 2.81038 8.35714 2.55357 8.35714Z" fill="black"/>
</svg>
