<svg width="17" height="14" viewBox="0 0 17 14" fill="none" xmlns="http://www.w3.org/2000/svg">
<path d="M14.45 2.625V5.25H15.3V7.875H14.45V10.5H1.7V2.625H14.45ZM14.875 0H1.275C0.570828 0 0 0.881426 0 1.96875V11.1562C0 12.2436 0.570828 13.125 1.275 13.125H14.875C15.5792 13.125 16.15 12.2436 16.15 11.1562V10.5H16.3625C16.7146 10.5 17 10.0593 17 9.51562V3.60938C17 3.06571 16.7146 2.625 16.3625 2.625H16.15V1.96875C16.15 0.881426 15.5792 0 14.875 0ZM11.05 3.9375H2.55V9.1875H11.05V3.9375Z" fill="black"/>
</svg>
