<svg width="15" height="11" viewBox="0 0 15 11" fill="none" xmlns="http://www.w3.org/2000/svg">
<path d="M7.50042 2.24987C9.67679 2.24996 11.7699 3.09113 13.3473 4.59952C13.466 4.71597 13.6559 4.7145 13.7729 4.59623L14.9082 3.44363C14.9675 3.38364 15.0005 3.30238 15 3.21783C14.9995 3.13328 14.9655 3.05242 14.9056 2.99313C10.7657 -0.997709 4.23448 -0.997709 0.0945565 2.99313C0.0345868 3.05237 0.000560426 3.13321 7.46634e-06 3.21776C-0.000545591 3.30231 0.0324202 3.38359 0.0916097 3.44363L1.22732 4.59623C1.34423 4.71468 1.53422 4.71615 1.65293 4.59952C3.23043 3.09103 5.32383 2.24986 7.50042 2.24987ZM7.50042 5.99976C8.69619 5.99969 9.8493 6.44676 10.7357 7.25412C10.8556 7.3687 11.0444 7.36622 11.1613 7.24852L12.2953 6.09592C12.3551 6.03546 12.3882 5.95345 12.3873 5.86822C12.3865 5.783 12.3517 5.70168 12.2908 5.64246C9.59158 3.1169 5.41154 3.1169 2.71236 5.64246C2.65139 5.70168 2.6166 5.78304 2.6158 5.86829C2.615 5.95354 2.64825 6.03555 2.7081 6.09592L3.84185 7.24852C3.95871 7.36622 4.14756 7.3687 4.26745 7.25412C5.15324 6.4473 6.30543 6.00026 7.50042 5.99976ZM9.67984 8.75052C9.74049 8.69064 9.7739 8.60825 9.77216 8.52278C9.77043 8.43732 9.73371 8.35636 9.67067 8.29903C8.41785 7.23316 6.58298 7.23316 5.33016 8.29903C5.26708 8.35632 5.2303 8.43725 5.2285 8.52271C5.22671 8.60818 5.26005 8.6906 5.32066 8.75052L7.2827 10.7419C7.34021 10.8004 7.41861 10.8333 7.50042 10.8333C7.58222 10.8333 7.66062 10.8004 7.71813 10.7419L9.67984 8.75052Z" fill="black"/>
</svg>
